# xmcd
#
# Track frame offsets:
#   150
#   16820
#   38908
#   54465
#   73790
#   90995
#   110370
#   131815
#   152838
#   172848
#   190073
#
# Disc length: 2760 seconds
#
# Revision: 0
# Processed by: cddbd v1.5.2PL0 Copyright (c) Steve Scherf et al.
# Submitted via: uFREEDB ActiveX Control 1.5
#
DISCID=860ac60b
DTITLE=Wando - Os Grandes da MPB V036
DYEAR=1998
DGENRE=Latin
TTITLE0=Deus Te Proteja de Mim
TTITLE1=O Que Eu Vou Dizer para o Meu Corpo
TTITLE2=Sua Flor Seduziu meu Beija-Flor (Carente)
TTITLE3=Viver é Deixar Rolar Sentimento
TTITLE4=Fogo e Paixão
TTITLE5=Eu já Tirei a Tua Roupa
TTITLE6=O Nosso Amor de Índio
TTITLE7=Mulheres
TTITLE8=Nas Curvas do Teu Corpo
TTITLE9=Chora Coração
TTITLE10=Eu Acho que Eu Estou Perdendo Você
EXTD=
EXTT0=
EXTT1=
EXTT2=
EXTT3=
EXTT4=
EXTT5=
EXTT6=
EXTT7=
EXTT8=
EXTT9=
EXTT10=
PLAYORDER=
